<?xml version="1.0" standalone="no"?>
<!DOCTYPE svg PUBLIC "-//W3C//DTD SVG 20010904//EN"
 "http://www.w3.org/TR/2001/REC-SVG-20010904/DTD/svg10.dtd">
<svg version="1.0" xmlns="http://www.w3.org/2000/svg"
 width="512.000000pt" height="512.000000pt" viewBox="0 0 512.000000 512.000000"
 preserveAspectRatio="xMidYMid meet">
<metadata>
Created by potrace 1.11, written by Peter Selinger 2001-2013
</metadata>
<g transform="translate(0.000000,512.000000) scale(0.100000,-0.100000)"
fill="#000000" stroke="none">
<path d="M0 2560 l0 -2560 2560 0 2560 0 0 2560 0 2560 -2560 0 -2560 0 0
-2560z m1787 1890 c114 -69 60 -250 -75 -250 -78 0 -132 58 -132 140 0 47 4
56 39 91 34 35 44 39 87 39 31 0 61 -7 81 -20z m-877 -455 l0 -425 115 0 115
0 0 -85 0 -85 -335 0 -335 0 0 85 0 85 125 0 125 0 0 340 0 340 -120 0 -120 0
0 85 0 85 215 0 215 0 0 -425z m1861 130 c57 -20 114 -77 136 -134 14 -38 18
-91 21 -318 l3 -273 -90 0 -91 0 0 218 c0 119 -5 234 -10 254 -26 91 -119 131
-207 87 -81 -41 -87 -64 -91 -331 l-3 -228 -90 0 -89 0 0 360 0 360 90 0 90 0
0 -55 c0 -30 4 -55 8 -55 4 0 25 21 46 46 22 26 57 55 80 65 51 23 138 25 197
4z m-961 -280 l0 -275 105 0 105 0 0 -85 0 -85 -320 0 -320 0 0 85 0 85 120 0
120 0 0 190 0 190 -110 0 -110 0 0 85 0 85 205 0 205 0 0 -275z m1522 38 c3
-205 5 -243 21 -270 23 -43 68 -65 129 -65 63 1 105 26 132 77 19 37 21 59 24
268 l3 227 90 0 89 0 0 -360 0 -360 -90 0 -90 0 0 49 c0 28 -4 52 -10 56 -5 3
-21 -12 -35 -33 -41 -62 -95 -87 -190 -87 -117 0 -174 34 -226 135 -23 44 -24
53 -27 323 l-3 277 90 0 90 0 3 -237z m958 107 c45 -91 70 -130 81 -130 12 0
38 40 84 130 l66 130 100 0 100 0 -85 -164 c-47 -90 -86 -173 -86 -185 0 -12
41 -100 91 -196 l91 -175 -105 0 -105 0 -68 140 c-38 80 -73 140 -81 140 -8 0
-43 -60 -81 -140 l-67 -139 -102 -1 c-57 0 -103 3 -103 6 0 4 42 87 92 186
l93 178 -88 169 c-48 92 -87 171 -87 175 0 3 44 6 98 6 l98 0 64 -130z m-2490
-1365 l0 -425 115 0 115 0 0 -85 0 -85 -335 0 -335 0 0 85 0 85 125 0 125 0 0
340 0 340 -120 0 -120 0 0 85 0 85 215 0 215 0 0 -425z m1500 225 c0 -120 4
-200 10 -200 5 0 31 22 58 49 58 58 106 75 202 69 158 -9 267 -122 293 -304
21 -153 -27 -316 -114 -385 -62 -49 -105 -63 -199 -63 -101 0 -149 20 -200 84
-17 22 -36 38 -41 34 -5 -3 -9 -27 -9 -55 l0 -49 -90 0 -90 0 0 510 0 510 90
0 90 0 0 -200z m-2320 -111 c31 -15 72 -40 91 -57 38 -33 95 -130 101 -171 3
-23 -2 -26 -82 -46 l-85 -21 -25 50 c-29 60 -73 92 -137 102 -123 18 -223 -76
-223 -211 0 -139 105 -223 241 -194 58 13 116 63 126 110 3 16 9 31 13 34 4 2
45 -6 91 -18 95 -25 95 -24 55 -112 -65 -145 -217 -216 -400 -187 -128 20
-217 82 -272 189 -27 55 -29 65 -29 178 0 103 3 127 22 168 46 99 116 163 216
198 79 28 223 22 297 -12z m1460 -216 c0 -199 3 -233 19 -268 22 -50 37 -62
86 -72 57 -13 111 -1 146 33 49 47 59 102 59 331 l0 203 90 0 90 0 0 -360 0
-360 -90 0 -90 0 0 49 c0 48 -19 81 -28 50 -11 -33 -89 -97 -132 -109 -98 -27
-210 6 -269 77 -55 66 -61 108 -61 395 l0 258 90 0 90 0 0 -227z m-1400 -968
c160 -66 184 -142 178 -573 -3 -274 -5 -282 -71 -322 -27 -17 -51 -20 -154
-20 -138 0 -167 7 -191 50 -21 37 -33 38 -60 1 -44 -61 -170 -67 -246 -14
-132 92 -155 397 -42 539 71 89 211 107 281 34 36 -38 45 -38 45 0 l0 30 85 0
85 0 0 -220 c0 -206 1 -221 20 -240 15 -15 25 -17 42 -11 l23 8 0 246 c0 233
-1 247 -21 274 -43 59 -65 63 -326 63 l-238 0 0 91 0 91 273 -4 c236 -4 278
-7 317 -23z m1731 -189 c87 -41 172 -145 181 -221 3 -27 0 -28 -82 -51 -47
-13 -86 -24 -87 -24 -1 0 -4 13 -8 29 -17 80 -117 141 -207 127 -183 -29 -229
-308 -65 -393 42 -21 143 -21 184 0 38 20 68 57 85 103 7 19 17 33 23 31 5 -3
45 -13 88 -23 l78 -18 -7 -30 c-19 -90 -108 -192 -199 -228 -63 -25 -168 -33
-238 -18 -129 26 -208 84 -259 188 -31 63 -33 72 -33 177 0 103 2 114 31 175
70 146 187 213 364 207 78 -3 105 -9 151 -31z m-1221 -216 c0 -244 5 -275 49
-314 44 -40 153 -36 200 7 49 45 55 76 59 315 l4 222 89 0 89 0 0 -360 0 -360
-90 0 -90 0 0 49 c0 54 -17 76 -34 45 -25 -44 -83 -93 -126 -104 -92 -25 -203
4 -261 67 -63 67 -64 72 -67 381 l-3 282 90 0 91 0 0 -230z m1782 -7 c3 -205
5 -243 21 -270 23 -43 68 -65 129 -65 63 1 105 26 132 77 19 37 21 59 24 268
l3 227 90 0 89 0 0 -360 0 -360 -90 0 -90 0 0 49 c0 28 -4 52 -10 56 -5 3 -21
-12 -35 -33 -41 -62 -95 -87 -190 -87 -117 0 -174 34 -226 135 -23 44 -24 53
-27 323 l-3 277 90 0 90 0 3 -237z"/>
<path d="M3415 2581 c-94 -42 -136 -150 -104 -264 36 -131 222 -176 320 -78
76 76 76 227 0 302 -58 58 -142 74 -216 40z"/>
<path d="M600 1102 c-30 -30 -54 -114 -45 -158 3 -13 7 -35 10 -48 3 -14 17
-38 31 -55 22 -27 33 -31 73 -31 55 0 85 24 101 81 24 83 -2 203 -48 228 -39
21 -91 13 -122 -17z"/>
</g>
</svg>
